<svg width="16" height="16" viewBox="0 0 16 16" fill="none" xmlns="http://www.w3.org/2000/svg">
<path d="M4.78585 9.48627C5.22637 9.48627 5.58349 9.1338 5.58349 8.69899C5.58349 8.26419 5.22637 7.91171 4.78585 7.91171C4.34532 7.91171 3.98821 8.26419 3.98821 8.69899C3.98821 9.1338 4.34532 9.48627 4.78585 9.48627Z" fill="#79655E"/>
<path d="M8.77405 8.69899C8.77405 9.1338 8.41694 9.48627 7.97641 9.48627C7.53589 9.48627 7.17877 9.1338 7.17877 8.69899C7.17877 8.26419 7.53589 7.91171 7.97641 7.91171C8.41694 7.91171 8.77405 8.26419 8.77405 8.69899Z" fill="#79655E"/>
<path d="M11.167 9.48627C11.6075 9.48627 11.9646 9.1338 11.9646 8.69899C11.9646 8.26419 11.6075 7.91171 11.167 7.91171C10.7264 7.91171 10.3693 8.26419 10.3693 8.69899C10.3693 9.1338 10.7264 9.48627 11.167 9.48627Z" fill="#79655E"/>
<path d="M5.58349 11.8481C5.58349 12.2829 5.22637 12.6354 4.78585 12.6354C4.34532 12.6354 3.98821 12.2829 3.98821 11.8481C3.98821 11.4133 4.34532 11.0608 4.78585 11.0608C5.22637 11.0608 5.58349 11.4133 5.58349 11.8481Z" fill="#79655E"/>
<path d="M7.97641 12.6354C8.41694 12.6354 8.77405 12.2829 8.77405 11.8481C8.77405 11.4133 8.41694 11.0608 7.97641 11.0608C7.53589 11.0608 7.17877 11.4133 7.17877 11.8481C7.17877 12.2829 7.53589 12.6354 7.97641 12.6354Z" fill="#79655E"/>
<path fill-rule="evenodd" clip-rule="evenodd" d="M4.78585 1.61345C4.78585 1.17865 4.42873 0.826172 3.98821 0.826172C3.54768 0.826172 3.19056 1.17865 3.19056 1.61345H1.59528C0.714232 1.61345 0 2.31841 0 3.18802V14.21C0 15.0796 0.714233 15.7845 1.59528 15.7845H14.3575C15.2386 15.7845 15.9528 15.0796 15.9528 14.21V3.18802C15.9528 2.31841 15.2386 1.61345 14.3575 1.61345H12.7623C12.7623 1.17865 12.4051 0.826172 11.9646 0.826172C11.5241 0.826172 11.167 1.17865 11.167 1.61345H4.78585ZM1.59528 4.76258V3.18802H14.3575V4.76258H1.59528ZM1.59528 6.33715V14.21H9.70857L14.3575 9.62137V6.33715H1.59528ZM14.3575 11.8481L11.9646 14.21H14.3575V11.8481Z" fill="#79655E"/>
</svg>
