<svg width="50" height="27" viewBox="0 0 50 27" fill="none" xmlns="http://www.w3.org/2000/svg">
<g clip-path="url(#clip0_196_23)">
<path d="M29.414 10.3115V10.3452V10.3789V10.4125V10.4462L29.448 10.4799V10.5136V10.5473V10.581L29.4821 10.6147V10.6484V10.6821V10.7158V10.7495V10.7832V10.8169H29.5162V10.8506V10.8843L30.1638 10.8169V10.7832V10.7495V10.7158V10.6821V10.6484L30.1297 10.6147V10.581V10.5473V10.5136V10.4799V10.4462L30.0956 10.4125V10.3789V10.3452V10.3115L30.0615 10.2778V10.2441V10.2104V10.1767V10.143L30.0274 10.1093L29.3799 10.2778V10.3115H29.414Z" fill="#1D1D1B"/>
<path d="M29.7891 9.40158V9.36788V9.33418L29.755 9.30052V9.26682L29.7209 9.23312V9.19942V9.16572L29.6868 9.13202V9.09831H29.6528V9.06461L29.6187 9.03091V8.99721L29.5846 8.96351V8.92985V8.89615L29.5505 8.86245V8.82874H29.5164V8.79504L28.937 9.13202V9.16572L28.9711 9.19942L29.0052 9.23312V9.26682V9.30052L29.0392 9.33418L29.0733 9.36788V9.40158V9.43528L29.1074 9.46899V9.50269L29.1415 9.53639V9.57009V9.60379H29.1756V9.63749V9.67119L29.2097 9.70485L29.8232 9.43528L29.7891 9.40158Z" fill="#1D1D1B"/>
<path d="M29.1068 8.18852L29.0727 8.15482V8.12112L29.0386 8.08742L29.0045 8.05372L28.9704 8.02002V7.98631L28.9364 7.95261H28.9023V7.91891L28.8682 7.88521L28.8341 7.85151L28.8 7.81785L28.7659 7.78415V7.75045H28.7319L28.6978 7.71675V7.68304H28.6637L28.1865 8.12112V8.15482H28.2206L28.2547 8.18852V8.22218H28.2888V8.25588L28.3228 8.28958H28.3569V8.32329L28.391 8.35699L28.4251 8.39069L28.4592 8.42439V8.45809L28.4933 8.49179L28.5273 8.52549L28.5614 8.55919L28.5955 8.59285L29.1409 8.22218L29.1068 8.18852Z" fill="#1D1D1B"/>
<path d="M28.1527 7.17757H28.1186L28.0845 7.14387L28.0504 7.11016L28.0163 7.07646H27.9823L27.9482 7.04276L27.9141 7.0091L27.88 6.9754H27.8459L27.8118 6.9417L27.7778 6.908H27.7437L27.7096 6.8743L27.6755 6.8406L27.6414 6.80689H27.6073L27.5732 6.77319L27.2324 7.34607L27.2665 7.37977H27.3006L27.3347 7.41343L27.3687 7.44714H27.4028V7.48084H27.4369L27.471 7.51454H27.5051V7.54824H27.5392L27.5732 7.58194L27.6073 7.61564L27.6414 7.64934L27.6755 7.68304H27.7096V7.71675H27.7437L28.1527 7.21127V7.17757Z" fill="#1D1D1B"/>
<path d="M26.176 6.84066L26.2101 6.87436H26.2441L26.2782 6.90806H26.3123H26.3464L26.3805 6.94176H26.4146L26.4486 6.97542H26.4827H26.5168V7.00913H26.5509H26.585L26.6191 7.04283H26.6532L26.9599 6.43629H26.9258H26.8917L26.8577 6.40259H26.8236L26.7895 6.36888H26.7554H26.7213L26.6872 6.33518H26.6532H26.6191V6.30148H26.585L26.5509 6.26778H26.5168H26.4827L26.4486 6.23408H26.4146H26.3805L26.3464 6.20038H26.3123H26.2782L26.0737 6.84066H26.1078H26.1419H26.176Z" fill="#1D1D1B"/>
<path d="M24.9149 6.60478L24.9489 6.63848H24.983H25.0171H25.0512H25.0853H25.1194H25.1534H25.1875H25.2216H25.2557L25.2898 6.67218H25.3238H25.3579H25.392H25.4261H25.4602L25.5965 6.03194H25.5624H25.5283H25.4943L25.4602 5.99824H25.4261H25.392H25.3579H25.3238H25.2898H25.2557L25.2216 5.96454H25.1875H25.1534H25.1194H25.0853H25.0512H25.0171H24.983H24.9489H24.9149H24.8808L24.8467 6.60478H24.8808H24.9149Z" fill="#1D1D1B"/>
<path d="M33.8782 10.3452V10.4126V10.4463V10.48V10.5474V10.5811V10.6148L33.8441 10.6822V10.7159V10.7833V10.817V10.8844L33.8101 10.9181V10.9855H34.9007V10.9181V10.8507L34.9348 10.817V10.7496V10.6822V10.6148V10.5811V10.5137V10.4463L34.9689 10.3789V10.3452L33.8782 10.3115V10.3452Z" fill="#1D1D1B"/>
<path d="M33.7084 8.35696V8.42436V8.49177L33.7425 8.52547V8.59287V8.66027L33.7765 8.69393V8.76133V8.82874V8.86244L33.8106 8.92984V8.99724V9.03094V9.09831V9.16571L33.8447 9.23311V9.26681V9.33422L34.9013 9.23311V9.16571V9.09831V9.03094L34.8672 8.96354V8.89614V8.86244V8.79504L34.8331 8.72763V8.66027V8.59287V8.52547L34.799 8.45807V8.39066V8.35696L34.7649 8.2896V8.2222L34.7309 8.15479V8.12109L33.6743 8.35696H33.7084Z" fill="#1D1D1B"/>
<path d="M33.0605 6.43624L33.0946 6.50365V6.53735L33.1287 6.60475L33.1628 6.63841V6.70581L33.1969 6.73951L33.231 6.80692V6.84062L33.2651 6.90802L33.2991 6.94172V7.00908L33.3332 7.07648V7.11019L33.3673 7.17759V7.21129L33.4014 7.27869V7.31239L33.4355 7.37976L34.4579 7.04278L34.4239 7.00908V6.94172L34.3898 6.87432L34.3557 6.80692V6.77322L34.3216 6.70581V6.63841L34.2875 6.57105L34.2534 6.53735V6.46995L34.2193 6.40254L34.1853 6.33514V6.30144L34.1512 6.23408L34.1171 6.16668L34.083 6.13297V6.06557L34.0489 5.99817L33.0605 6.43624Z" fill="#1D1D1B"/>
<path d="M32.0381 4.71771L32.0722 4.78511L32.1063 4.81881L32.1404 4.85251L32.1744 4.91987L32.2085 4.95357L32.2426 4.98728L32.2767 5.05468L32.3108 5.08838L32.3449 5.12208L32.3789 5.18948V5.22318L32.413 5.29055L32.4471 5.32425L32.4812 5.35795L32.5153 5.42535L32.5493 5.45905L32.5834 5.49275V5.56016L33.5037 5.02098V4.95357L33.4696 4.91987L33.4355 4.85251L33.4014 4.81881L33.3673 4.75141L33.3332 4.68401L33.2992 4.6503L33.2651 4.5829L33.231 4.5492L33.1969 4.48184L33.1628 4.44814L33.1287 4.38074L33.0947 4.34703L33.0606 4.27963L33.0265 4.24593L32.9924 4.17853L32.9242 4.14483L32.8902 4.11115V4.07745L32.0381 4.71771Z" fill="#1D1D1B"/>
<path d="M30.7088 3.30234L30.7769 3.36973L30.811 3.40343L30.8451 3.43713L30.8792 3.47083L30.9133 3.50452L30.9815 3.53822L31.0155 3.57192L31.0496 3.60561L31.0837 3.63931L31.1178 3.70671L31.1519 3.74041L31.22 3.7741L31.2541 3.8078L31.2882 3.8415L31.3223 3.8752L31.3564 3.94259H31.3905L32.1743 3.23494L32.1403 3.20124L32.1062 3.16755L32.0721 3.10015L32.0039 3.06646L31.9699 3.03276L31.9358 2.96536L31.8676 2.93166L31.8335 2.89797L31.7994 2.86427L31.7654 2.79688L31.6972 2.76318L31.6631 2.72948L31.629 2.69578L31.5609 2.62839L31.5268 2.59469L31.4927 2.56099L31.4245 2.52729L31.3905 2.4936L31.3564 2.4599L30.6406 3.26864H30.6747L30.7088 3.30234Z" fill="#1D1D1B"/>
<path d="M29.0388 2.15673L29.0729 2.19043H29.1411L29.1752 2.22412L29.2433 2.25782L29.2774 2.29152L29.3115 2.32522L29.3797 2.35892H29.4138L29.4819 2.39261L29.516 2.42631L29.5501 2.46001L29.6183 2.4937L29.6524 2.5274L29.7205 2.5611L29.7546 2.5948L29.7887 2.6285H29.8569L30.4363 1.75236L30.4022 1.71866L30.334 1.68497L30.2999 1.65127L30.2318 1.61757L30.1977 1.58387L30.1295 1.55018L30.0955 1.51648L30.0273 1.48278H29.9932L29.925 1.44908L29.8569 1.41538L29.8228 1.38169L29.7546 1.34799L29.7205 1.31429L29.6524 1.2806L29.5842 1.2469L29.5501 1.2132L29.4819 1.1795L28.9707 2.12303L29.0388 2.15673Z" fill="#1D1D1B"/>
<path d="M27.1984 1.41523H27.2666L27.3007 1.44893H27.3688L27.437 1.48262H27.4711L27.5392 1.51632H27.5733L27.6415 1.55002H27.7097L27.7438 1.58372L27.8119 1.61741H27.846L27.9142 1.65111H27.9483L28.0164 1.68481H28.0505L28.4595 0.707582H28.3913L28.3573 0.673885L28.2891 0.640183H28.2209L28.1528 0.606486L28.1187 0.572789H28.0505L27.9823 0.539092H27.9142L27.8801 0.505395L27.8119 0.471698H27.7438L27.6756 0.438001H27.6415L27.5733 0.404303H27.5052L27.437 0.370605H27.3688L27.0962 1.38153H27.1643L27.1984 1.41523Z" fill="#1D1D1B"/>
<path d="M25.2218 1.07832H25.2559H25.324H25.3922H25.4604H25.4945H25.5626L25.6308 1.11202H25.6649H25.7331H25.8012H25.8353L25.9035 1.14571H25.9716H26.0398H26.0739L26.108 1.17941L26.2784 0.13479L26.2443 0.101093H26.1761H26.108H26.0739L26.0057 0.0673951H25.9376H25.8694H25.8012L25.7331 0.0336975H25.6649H25.5967H25.5285H25.4604L25.3922 0H25.3581H25.29H25.2218H25.1536L25.0854 1.04462L25.1536 1.07832H25.2218Z" fill="#1D1D1B"/>
<path d="M31.6973 10.4462V10.4799L31.7314 10.5473V10.581V10.6147V10.6821V10.7158V10.7495V10.8169L31.7654 10.8506V10.8843V10.9517V10.9854H32.6857V10.918V10.8843V10.8169V10.7832V10.7158V10.6821V10.6147L32.6516 10.581V10.5136V10.4799V10.4125V10.3788L32.6175 10.3114V10.2777V10.244L31.6973 10.4125V10.4462Z" fill="#1D1D1B"/>
<path d="M31.2538 8.79501V8.86237L31.2879 8.89607V8.92977L31.322 8.96347V8.99717L31.3561 9.06458V9.09828L31.3902 9.13198V9.16568V9.19938L31.4242 9.26674V9.30044L31.4583 9.33415V9.36785V9.43525L31.4924 9.46895V9.50265V9.53635L32.4127 9.30044V9.23304L32.3786 9.19938V9.13198L32.3445 9.09828V9.06458L32.3104 8.99717V8.96347L32.2763 8.92977V8.86237L32.2422 8.82871V8.76131V8.72761L32.2082 8.6939L32.1741 8.6265V8.5928L32.14 8.5591V8.4917L32.1059 8.45804V8.42434L32.0718 8.35693L31.2197 8.72761V8.76131L31.2538 8.79501Z" fill="#1D1D1B"/>
<path d="M30.3681 7.27866L30.4022 7.31236L30.4363 7.34606L30.4703 7.37976V7.41346L30.5044 7.44716L30.5385 7.48087V7.51457L30.5726 7.54827L30.6067 7.58197L30.6408 7.61567V7.68303L30.6749 7.71673L30.7089 7.75044V7.78414L30.743 7.81784L30.7771 7.85154V7.88524L30.8112 7.91894V7.95264L31.6291 7.48087V7.44716L31.5951 7.41346L31.561 7.37976V7.34606L31.5269 7.27866L31.4928 7.245L31.4587 7.2113L31.4246 7.1776V7.11019L31.3906 7.07649L31.3565 7.04279L31.3224 7.00909V6.97539L31.2883 6.94169L31.2542 6.87433L31.2202 6.84062L31.1861 6.80692L31.152 6.77322V6.73952L31.1179 6.70582L31.0838 6.67212L30.334 7.2113L30.3681 7.245V7.27866Z" fill="#1D1D1B"/>
<path d="M30.4021 5.89702L30.368 5.86331L30.3339 5.82961L30.2998 5.79591L30.2657 5.76221L30.2316 5.72851L30.1976 5.69481L30.1635 5.66111L30.1294 5.62745L30.0953 5.59375L30.0612 5.56004L30.0272 5.52634L29.9931 5.49264L29.959 5.45894L29.9249 5.42524L29.8908 5.39154L29.8567 5.35784L29.8227 5.32414L29.7545 5.29043L29.7204 5.25677L29.1069 5.96442L29.141 5.99812L29.1751 6.03178H29.2092L29.2433 6.06548L29.2773 6.09918L29.3114 6.13288L29.3455 6.16658L29.3796 6.20029H29.4137L29.4478 6.23399V6.26769L29.4818 6.30139L29.5159 6.33509L29.55 6.36879L29.5841 6.40245H29.6182L29.6523 6.43615L29.6863 6.46985L29.7204 6.50356L29.7545 6.53726V6.57096L30.4361 5.89702H30.4021Z" fill="#1D1D1B"/>
<path d="M28.3909 4.38073H28.3568L28.2886 4.34702L28.2545 4.31332H28.2204L28.1864 4.27962L28.1182 4.24592H28.0841L28.05 4.21222H28.0159L27.6069 5.05467H27.641L27.6751 5.08837H27.7092L27.7433 5.12207H27.8114L27.8455 5.15577L27.8796 5.18947H27.9137L27.9478 5.22317H27.9818L28.0159 5.25683L28.05 5.29054H28.1182L28.1523 5.32424H28.1864L28.2204 5.35794L28.2545 5.39164H28.2886L28.3227 5.42534L28.3568 5.45904H28.3909L28.9021 4.684L28.868 4.65029L28.7999 4.61659H28.7658L28.7317 4.58289L28.6976 4.54919H28.6635L28.5954 4.51549L28.5613 4.48183L28.5272 4.44813H28.459L28.4249 4.41443L28.3909 4.38073Z" fill="#1D1D1B"/>
<path d="M26.2097 3.63947L26.1415 3.60577H26.1074L25.937 4.51562H25.9711L26.0052 4.54932H26.0733H26.1074H26.1415L26.1756 4.58298H26.2438H26.2778L26.3119 4.61668H26.346H26.4142L26.4483 4.65038H26.4823H26.5164L26.5846 4.68409H26.6187H26.6528L26.6868 4.71779H26.755H26.7891V4.75149L27.0959 3.84166H27.0618H27.0277L26.9595 3.80796H26.9254L26.8914 3.77426H26.8232H26.7891L26.7209 3.74057H26.6868H26.6528L26.5846 3.70687H26.5505L26.4823 3.67317H26.4483H26.3801L26.346 3.63947H26.3119H26.2438H26.2097Z" fill="#1D1D1B"/>
<path d="M26.1758 22.4426L26.1077 22.51L26.0736 22.5774L26.0395 22.6111L25.9713 22.6785L25.9372 22.7459L25.9031 22.7796L25.835 22.8469L25.8009 22.9143L25.7327 22.948L25.6986 23.0154L25.6646 23.0491L25.6305 23.1165L25.5623 23.184L25.5282 23.2176L25.4941 23.285L26.3122 23.9253L26.3462 23.8916L26.4144 23.8242L26.4485 23.7905L26.4826 23.7231L26.5508 23.6894L26.5848 23.622L26.6189 23.5546L26.6871 23.5209L26.7212 23.4535L26.7552 23.4198L26.8234 23.3524L26.8575 23.285L26.8916 23.2513L26.9597 23.184L26.9938 23.1165L26.1758 22.4426Z" fill="#1D1D1B"/>
<path d="M27.505 20.8588L27.4368 20.9262L27.4028 20.9599L27.3346 21.0273L27.3005 21.0947L27.2323 21.1621L27.1982 21.2295L27.1301 21.2632L27.096 21.3306L27.0619 21.398L26.9937 21.4653L26.9597 21.5327L26.8915 21.5664L26.8574 21.6338L27.6754 22.3078L27.7095 22.2404L27.7777 22.2067L27.8118 22.1393L27.8799 22.0719L27.914 22.0045L27.9822 21.9708L28.0163 21.9034L28.0844 21.836L28.1185 21.7686L28.1867 21.7012L28.2208 21.6675L28.2889 21.6001L28.323 21.5327L28.3571 21.499L27.5391 20.7914L27.505 20.8588Z" fill="#1D1D1B"/>
<path d="M24.608 5.12208C24.9147 4.54924 25.1193 4.14487 25.4601 3.53831L25.0511 2.72957L24.6421 1.95453L24.199 2.76327L23.79 3.57201C24.0627 4.11117 24.3354 4.58295 24.608 5.12208Z" fill="#1D1D1B"/>
<path d="M19.3932 2.62843H19.4273L19.4613 2.59473L19.5295 2.56104L19.5636 2.52734L19.6318 2.49364L19.6658 2.45994L19.6999 2.42624L19.7681 2.39255L19.8022 2.35885H19.8363L19.9044 2.32515L19.9385 2.29146L20.0067 2.25776L20.0407 2.22406L20.1089 2.19036H20.143L20.1771 2.15666H20.2111L19.6999 1.21313H19.6658L19.6318 1.24683L19.5636 1.28053L19.5295 1.31423L19.4613 1.34792L19.3932 1.38162L19.3591 1.41532L19.2909 1.44901L19.2568 1.48272H19.1887L19.1546 1.51641L19.0864 1.55011L19.0523 1.58381L18.9842 1.6175L18.916 1.6512L18.8819 1.6849L18.8137 1.7186L18.7797 1.75229L18.7456 1.78599L19.3591 2.66213L19.3932 2.62843Z" fill="#1D1D1B"/>
<path d="M21.3703 7.78418H21.4044L21.4385 7.75048L21.4726 7.71678H21.5066V7.68308H21.5407L21.5748 7.64937H21.6089V7.61567L21.643 7.58197H21.677V7.54831H21.7111L21.7452 7.51461L21.7793 7.48091H21.8134L21.8475 7.44721L21.8815 7.41351L21.5066 6.87433L21.4726 6.90803H21.4385V6.94173H21.4044L21.3703 6.97543H21.3362L21.3021 7.00913V7.04283H21.2681L21.234 7.07654H21.1999L21.1658 7.11024V7.14394H21.1317L21.0977 7.17764H21.0636V7.2113L21.0295 7.245H20.9954L20.9613 7.2787V7.3124H20.9272L21.3703 7.81788V7.78418Z" fill="#1D1D1B"/>
<path d="M20.8926 5.42537L20.9267 5.39171H20.9608L20.9949 5.35801L21.029 5.32431H21.0971L21.1312 5.29061H21.1653L21.1994 5.25691L21.2335 5.2232H21.2675L21.3016 5.1895H21.3357L21.4039 5.1558L21.438 5.1221H21.472L21.5061 5.0884H21.5402L21.5743 5.0547H21.6084L21.6424 5.02104L21.2675 4.17859L21.2335 4.21229H21.1994L21.1312 4.24599H21.0971L21.063 4.27969L20.9949 4.31335H20.9608L20.9267 4.34705L20.8926 4.38076H20.8244L20.7904 4.41446L20.7563 4.44816H20.7222L20.654 4.48186L20.6199 4.51556L20.5859 4.54926H20.5518L20.4836 4.58296L20.4495 4.61666H20.4154L20.3813 4.65036L20.8585 5.45907L20.8926 5.42537Z" fill="#1D1D1B"/>
<path d="M16.6326 5.56007L16.6667 5.49267V5.45897L16.7007 5.4253L16.7348 5.3579L16.7689 5.3242L16.803 5.2905L16.8371 5.2231L16.8711 5.1894L16.9052 5.12199L16.9393 5.08829V5.05463L16.9734 4.98723L17.0075 4.95353L17.0416 4.91983L17.0756 4.85243L17.1097 4.81872L17.1438 4.78502L17.1779 4.75132L16.2917 4.11108V4.14478L16.2576 4.17848L16.2236 4.24589L16.1895 4.27959L16.1554 4.34695L16.1213 4.38065L16.0531 4.44805L16.0191 4.48175L15.985 4.54916L15.9509 4.58286L15.9168 4.65026L15.8827 4.68396L15.8486 4.75132L15.8145 4.81872V4.85243L15.7805 4.91983L15.7464 4.95353L15.7123 5.02093L15.6782 5.05463L16.5985 5.59377L16.6326 5.56007Z" fill="#1D1D1B"/>
<path d="M17.8254 3.97622L17.8595 3.94252L17.8936 3.87513L17.9277 3.84143L17.9618 3.80773L18.0299 3.77404L18.064 3.74034L18.0981 3.70664L18.1322 3.63924L18.1663 3.60555L18.2003 3.57185L18.2685 3.53815L18.3026 3.50446L18.3367 3.47076L18.3707 3.43706L18.4048 3.40336L18.473 3.36967L18.5071 3.30227L18.5412 3.26857L17.8595 2.49353H17.8254L17.7913 2.52723L17.7572 2.56092L17.6891 2.59462L17.655 2.62832L17.6209 2.69572L17.5527 2.72941L17.5187 2.76311L17.4846 2.79681L17.4164 2.8642L17.3823 2.8979L17.3482 2.9316L17.3141 2.96529L17.246 3.03269L17.2119 3.06639L17.1778 3.10009L17.1096 3.16748L17.0756 3.20118L17.0415 3.23488V3.26857L17.8254 3.97622Z" fill="#1D1D1B"/>
<path d="M19.5297 6.50367V6.46997L19.5638 6.43627L19.5978 6.40256H19.6319L19.666 6.36886L19.7001 6.33516L19.7342 6.30146L19.7683 6.26776L19.8024 6.23406L19.8364 6.20036H19.8705L19.9046 6.1667L19.9387 6.133L19.9728 6.09929V6.06559L20.0069 6.03189H20.0409L20.075 5.99819L20.1091 5.96449L20.1432 5.93079L19.5638 5.22314L19.5297 5.25685H19.4956L19.4615 5.29055L19.4274 5.32425L19.3934 5.35795L19.3593 5.39165L19.3252 5.42535L19.257 5.45901L19.2229 5.49271L19.1889 5.52641L19.1548 5.56012L19.1207 5.59382L19.0866 5.62752L19.0525 5.66122L19.0185 5.69492L18.9844 5.72862L18.9503 5.76232L18.9162 5.79602L18.8821 5.82968L18.8481 5.86339H18.814L19.4956 6.53737L19.5297 6.50367Z" fill="#1D1D1B"/>
<path d="M21.1652 1.7185L21.1993 1.68481L21.2675 1.65111H21.3016L21.3697 1.61741H21.4379L21.472 1.58372L21.5401 1.55002H21.5742L21.6424 1.51632H21.6765L21.7446 1.48262H21.8128L21.8469 1.44893H21.9151L21.9492 1.41523H22.0173L22.0855 1.38153L21.8128 0.370605H21.7787L21.7106 0.404303H21.6424L21.6083 0.438001H21.5401L21.472 0.471698H21.4038L21.3697 0.505395L21.3016 0.539092H21.2334L21.1652 0.572789H21.1312L21.063 0.606486L20.9948 0.640183H20.9267L20.8926 0.673885L20.8244 0.707582H20.7563L20.7222 0.741279L21.1312 1.7185H21.1652Z" fill="#1D1D1B"/>
<path d="M23.0743 1.17941L23.1424 1.14571H23.2106H23.2447H23.3128L23.381 1.11202H23.4151H23.4832H23.5514H23.6196L23.6536 1.07832H23.7218H23.79H23.8241H23.8922H23.9604H24.0286H24.0627H24.0967L24.0286 0H23.9604H23.8922H23.8241L23.7559 0.0336975H23.6877H23.6196H23.5514H23.4832L23.4151 0.0673951H23.3469H23.2787H23.2447L23.1765 0.101093H23.1083H23.0402H22.972L22.9038 0.13479L23.0743 1.17941Z" fill="#1D1D1B"/>
<path d="M23.6537 6.70588H23.6878H23.7219L23.756 6.67218H23.79H23.8241H23.8582H23.8923H23.9264L23.9605 6.63848H23.9946H24.0286H24.0627H24.0968H24.1309H24.165H24.1991H24.2331L24.165 5.96454H24.1309H24.0968H24.0627H24.0286H23.9946L23.9605 5.99824H23.9264H23.8923H23.8582H23.8241H23.79H23.756L23.7219 6.03194H23.6878H23.6537H23.6196H23.5855H23.5515L23.5174 6.0656H23.4833H23.4492L23.6196 6.70588H23.6537Z" fill="#1D1D1B"/>
<path d="M22.4947 4.71779H22.5288L22.5629 4.68409H22.597H22.6652L22.6992 4.65038H22.7333H22.7674L22.8356 4.61668H22.8696H22.9037L22.9378 4.58298H23.006H23.0401L23.0741 4.54932H23.1082H23.1764H23.2105L23.2446 4.51562H23.3127L23.1423 3.60577H23.0741L23.0401 3.63947H22.9719H22.9378H22.8696L22.8356 3.67317H22.7674H22.7333L22.6992 3.70687H22.6311L22.597 3.74057H22.5288H22.4947L22.4266 3.77426H22.3925H22.3584L22.2903 3.80796H22.2562L22.188 3.84166L22.4607 4.71779H22.4947Z" fill="#1D1D1B"/>
<path d="M14.2812 10.5137V10.581V10.6147V10.6821V10.7495L14.3153 10.8169V10.8506V10.918V10.9854H15.406V10.918V10.8843L15.3719 10.8169V10.7832V10.7158V10.6821V10.6484V10.581V10.5473L15.3378 10.48V10.4463V10.4126V10.3452L14.2812 10.4126V10.4463V10.5137Z" fill="#1D1D1B"/>
<path d="M22.4269 7.11009H22.4609V7.07639H22.495H22.5291L22.5632 7.04269H22.5973L22.6314 7.00898H22.6654H22.6995L22.7336 6.97528H22.7677L22.8018 6.94162H22.8359H22.8699L22.904 6.90792H22.9381L22.9722 6.87422H23.0063L22.7677 6.26764H22.7336H22.6995L22.6654 6.30134H22.6314L22.5973 6.33504H22.5632H22.5291L22.495 6.36874H22.4609H22.4269L22.3928 6.40244H22.3587L22.3246 6.43615H22.2905L22.2564 6.46985H22.2223L22.1883 6.50355H22.1542L22.1201 6.53725L22.4269 7.11009Z" fill="#1D1D1B"/>
<path d="M20.1772 8.08736V8.12106L20.1432 8.15476L20.1091 8.18842L20.075 8.22212V8.25582L20.0409 8.28953V8.32323H20.0068V8.35693L20.5522 8.7276L20.5862 8.6939V8.6602L20.6203 8.6265L20.6544 8.59279V8.55909H20.6885V8.52543L20.7226 8.49173L20.7567 8.45803V8.42433L20.7907 8.39063H20.8248V8.35693H20.8589V8.32323L20.893 8.28953L20.9271 8.25582L20.4158 7.81775V7.85145H20.3818L20.3477 7.88515V7.91885L20.3136 7.95255H20.2795V7.98625L20.2454 8.01996L20.2113 8.05366L20.1772 8.08736Z" fill="#1D1D1B"/>
<path d="M19.9728 9.80607L20.0068 9.77237V9.73867L20.0409 9.70497V9.67127V9.63757L20.075 9.60386V9.57016L20.1091 9.53646V9.50276V9.46906H20.1432V9.4354V9.4017L20.1773 9.368V9.3343H20.2114V9.30059V9.26689L19.6319 8.96362L19.5979 8.99732V9.03103L19.5638 9.06473V9.09839L19.5297 9.13209V9.16579L19.4956 9.19949V9.23319V9.26689L19.4615 9.30059V9.3343L19.4274 9.368V9.4017V9.4354L19.3934 9.46906V9.50276L19.3593 9.53646V9.57016L19.3252 9.60386L19.9728 9.83973V9.80607Z" fill="#1D1D1B"/>
<path d="M23.6199 23.3524L23.5858 23.285L23.5517 23.2176L23.4836 23.1839L23.4495 23.1165L23.4154 23.0828L23.3472 23.0154L23.3131 22.9481L23.279 22.9144L23.245 22.847L23.1768 22.7796L23.1427 22.7459L23.1086 22.6785L23.0405 22.6111L23.0064 22.5774L22.9723 22.5437L22.1543 23.2176L22.2225 23.285L22.2566 23.3524L22.2907 23.3861L22.3588 23.4535L22.3929 23.5209L22.427 23.5546L22.4951 23.622L22.5292 23.6894L22.5633 23.7231L22.6315 23.7905L22.6656 23.8242L22.6996 23.8916L22.7337 23.959L22.8019 23.9927V24.0264L23.654 23.3861L23.6199 23.3524Z" fill="#1D1D1B"/>
<path d="M22.2906 21.7012L22.2225 21.6338L22.1884 21.5664L22.1543 21.5327L22.0862 21.4653L22.0521 21.3979L21.9839 21.3305L21.9498 21.2968L21.8817 21.2294L21.8476 21.1621L21.7794 21.0947L21.7453 21.0273L21.7113 20.9936L21.6431 20.9262V20.8925L20.791 21.5664L20.8251 21.6001L20.8592 21.6338L20.9273 21.7012L20.9614 21.7686L20.9955 21.836L21.0637 21.9034L21.0978 21.9371L21.1659 22.0045L21.2 22.0719L21.2682 22.1393L21.3023 22.2067L21.3704 22.2404L21.4045 22.3078L21.4386 22.3751H21.4727L22.2906 21.7349V21.7012Z" fill="#1D1D1B"/>
<path d="M15.3715 9.33414L15.4056 9.26674V9.23308V9.16568V9.09828V9.03087L15.4397 8.99717V8.92977V8.86241V8.82871V8.76131L15.4738 8.6939V8.6602V8.5928L15.5079 8.5254V8.49174V8.42433L15.542 8.39063L14.4854 8.15472L14.4513 8.22213V8.28953V8.35693L14.4172 8.39063V8.45804V8.5254L14.3831 8.5928V8.6602V8.7276V8.79501L14.349 8.86241V8.89607V8.96347V9.03087L14.3149 9.09828V9.16568V9.23308V9.26674L15.3715 9.36785V9.33414Z" fill="#1D1D1B"/>
<path d="M23.4834 24.8686L23.5175 24.9023L24.6082 26.2166L25.7329 24.8686L24.6082 23.8577L23.4834 24.8686Z" fill="#1D1D1B"/>
<path d="M24.6076 20.7914L24.1305 21.398L23.6533 22.0045L24.1305 22.6447L24.6076 23.2513L25.0848 22.6447L25.562 22.0045L25.0848 21.398L24.6417 20.7914H24.6076Z" fill="#1D1D1B"/>
<path d="M16.5989 10.2104V10.2778V10.3115V10.3789L16.5649 10.4126V10.48V10.5137V10.5811V10.6148V10.6822L16.5308 10.7159V10.7833V10.817V10.8844V10.9181V10.9854H17.451L17.4851 10.9517V10.8844V10.8507V10.817V10.7496V10.7159V10.6822V10.6148L17.5192 10.5811V10.5474V10.48V10.4463V10.4126L17.5532 10.3452L16.5989 10.2104Z" fill="#1D1D1B"/>
<path d="M15.7803 7.37968L15.8144 7.31228V7.27858L15.8485 7.21118V7.17748L15.8826 7.11012L15.9167 7.07641V7.00901L15.9507 6.94161V6.90791L15.9848 6.84051L16.0189 6.80685V6.73944L16.053 6.70574V6.63834L16.0871 6.60464L16.1212 6.53724V6.50353L16.1552 6.46983L15.1668 6.0318V6.06546L15.1327 6.13286L15.0986 6.16656L15.0645 6.23397V6.30137L15.0305 6.33507L14.9964 6.40247V6.46983L14.9623 6.53724L14.9282 6.57094V6.63834L14.8941 6.70574L14.8601 6.77314V6.80685L14.826 6.87421V6.94161L14.7919 7.00901L14.7578 7.04271V7.07641L15.7803 7.41339V7.37968Z" fill="#1D1D1B"/>
<path d="M18.4391 7.88527L18.4732 7.85157V7.81787L18.5073 7.78421L18.5413 7.75051V7.7168L18.5754 7.6831L18.6095 7.6157V7.582L18.6436 7.5483L18.6777 7.5146L18.7118 7.4809V7.4472L18.7458 7.41354L18.7799 7.37983V7.34613L18.814 7.31243L18.8481 7.27873L18.8822 7.24503V7.21133L18.9163 7.17763L18.1664 6.63849H18.1323V6.70585L18.0983 6.73955L18.0642 6.77325L18.0301 6.80695L17.996 6.84066L17.9619 6.87436V6.94176L17.9279 6.97546L17.8938 7.00916L17.8597 7.04286L17.8256 7.07652V7.11022L17.7915 7.17763L17.7574 7.21133L17.7234 7.24503V7.27873L17.6893 7.34613L17.6552 7.37983L17.6211 7.41354V7.4472L18.4391 7.91897V7.88527Z" fill="#1D1D1B"/>
<path d="M17.7236 9.50272L17.7577 9.46902V9.43532V9.36796L17.7917 9.33426V9.30056L17.8258 9.26686V9.19945V9.16575L17.8599 9.13205V9.09835L17.894 9.06465V8.99729L17.9281 8.96359V8.92988V8.89618L17.9622 8.86248V8.79508L17.9962 8.76138V8.72768L18.0303 8.69398L17.1782 8.3233L17.1442 8.357L17.1101 8.42441V8.45811L17.076 8.49181V8.55921L17.0419 8.59291V8.62661L17.0078 8.69398V8.72768L16.9738 8.76138V8.82878L16.9397 8.86248V8.92988L16.9056 8.96359V8.99729L16.8715 9.06465V9.09835V9.13205L16.8374 9.19945V9.23315V9.26686L17.7236 9.50272Z" fill="#1D1D1B"/>
<path d="M19.6998 10.9516V10.9179L19.7339 10.8842V10.8505V10.8168V10.7831V10.7494V10.7157V10.682L19.768 10.6483V10.6146V10.5809V10.5473V10.5136L19.8021 10.4799V10.4462V10.4125L19.1545 10.2776V10.3113L19.1204 10.3451V10.3788V10.4125V10.4462V10.4799L19.0863 10.5136V10.5473V10.5809V10.6146V10.6483V10.682L19.0522 10.7157V10.7494V10.7831V10.8168V10.8505V10.8842V10.9179V10.9516V10.9853H19.6998V10.9516Z" fill="#1D1D1B"/>
<path d="M49.455 16.0064L47.1711 14.2541C46.8645 14.0182 46.7281 13.715 46.7281 13.4117C46.7281 12.6366 47.4438 12.2997 48.1256 12.2997C48.7731 12.2997 49.3868 12.5355 49.3868 13.2769H49.5231L49.4888 12.0638H49.1141C48.8074 11.9964 48.4665 11.9627 48.0574 11.9627C47.3756 11.9627 46.7281 12.1986 46.3533 12.7715C45.9442 13.4117 46.0806 14.3215 46.6599 14.827L48.9434 16.5456C49.2161 16.7815 49.3525 17.0847 49.3525 17.4554C49.3525 18.3315 48.5347 18.7022 47.7508 18.7022C46.7963 18.7022 46.1149 18.0956 46.2508 17.1184H46.1149C46.0124 17.388 45.9785 17.6913 45.9785 17.9609C45.9785 18.2304 45.9785 18.4326 46.0124 18.5C46.4554 18.9044 47.3756 19.0392 47.9893 19.0392C49.0459 19.0392 50 18.2978 50 17.2195C50 16.6803 49.7955 16.276 49.455 16.0064Z" fill="#1D1D1B"/>
<path d="M37.7642 18.5673C37.6279 18.4662 37.5256 18.2977 37.5256 18.1293V12.805C37.5256 12.6366 37.6279 12.5018 37.7642 12.4007C37.9687 12.2322 38.1732 12.2322 38.4459 12.2322V12.1311H35.8896V12.2322C36.1623 12.2322 36.3668 12.2322 36.5713 12.4007C36.7077 12.5355 36.8099 12.6702 36.8099 12.8387V18.1293C36.8099 18.4999 36.4009 18.7358 36.0601 18.7358H35.8896V18.8369H38.48V18.7358C38.1732 18.7358 37.9687 18.7358 37.7642 18.5673Z" fill="#1D1D1B"/>
<path d="M34.0493 17.9271C33.8789 17.7586 33.6744 17.489 33.4017 17.1521C33.129 16.8151 32.9927 16.6466 32.9927 16.6466C32.6519 16.1749 32.3451 15.8715 32.1065 15.7705C33.1631 15.6694 33.8789 14.8943 33.8789 13.8497C33.8789 12.5692 32.686 12.0974 31.5612 12.0974H28.6982V12.1985H28.8687C29.2095 12.1985 29.5162 12.4344 29.5162 12.7714V18.0956C29.5162 18.2641 29.4481 18.3989 29.3117 18.5336C29.1072 18.7022 28.9368 18.7022 28.6982 18.7022V18.8032H31.0159V18.7022C30.8455 18.7022 30.7092 18.7022 30.5387 18.6348C30.3342 18.4999 30.232 18.3315 30.232 18.0956V12.4681H30.8455C31.4589 12.4681 32.1406 12.4344 32.6519 12.8725C33.1972 13.3779 33.1631 14.3214 32.7882 14.928C32.686 15.0628 32.5156 15.1976 32.277 15.3324C32.1065 15.4335 31.5612 15.4672 30.6751 15.4672V15.5683C31.3908 15.5683 31.9702 16.5455 32.3792 17.0847C32.7882 17.6575 33.0609 18.1293 33.6744 18.5336C34.1856 18.9043 34.8332 18.8706 35.4467 18.8706V18.7696C34.765 18.7359 34.4242 18.3652 34.0493 17.9271Z" fill="#1D1D1B"/>
<path d="M27.914 12.1985V10.7832C27.8458 10.8169 27.7095 10.8506 27.4709 10.918C27.2323 10.9854 26.9256 11.0191 26.5506 11.0191H22.6993C22.3244 11.0191 21.6768 10.9517 21.3359 10.8169V12.2322H21.4382V12.03C21.4382 11.6594 21.7109 11.3561 22.0858 11.3561H24.233V18.0955C24.233 18.2978 24.1649 18.4326 23.9944 18.5673C23.7899 18.7695 23.6195 18.7695 23.3468 18.7695V18.8706H25.8349V18.7695H25.6986C25.2896 18.7695 24.9828 18.4662 24.9828 18.0619V11.3224H27.1301C27.505 11.3224 27.7777 11.6257 27.7777 11.9963V12.1985H27.914Z" fill="#1D1D1B"/>
<path d="M42.3656 12.0974H39.707V12.1985H39.8774C40.2183 12.1985 40.525 12.4344 40.525 12.8051V18.1293C40.525 18.2978 40.4569 18.4325 40.3205 18.5673C40.116 18.7359 39.9456 18.7359 39.707 18.7359V18.8369H42.059V18.7359C41.8883 18.7359 41.7519 18.7359 41.5817 18.6685C41.3772 18.5674 41.2748 18.3652 41.2408 18.1293V12.4344H42.3313C43.2858 12.4344 44.1379 12.8725 44.1379 13.9171C44.1379 14.1867 44.1036 14.3888 44.0697 14.5237C43.9334 14.928 43.6949 15.265 43.354 15.4335C42.911 15.7368 42.1949 15.7705 41.6838 15.6357V15.7368C42.059 15.9052 42.4677 16.0063 42.8767 16.0063C44.1036 16.0063 44.9557 15.1976 44.9557 13.9845C44.9557 12.6029 43.5924 12.0974 42.3656 12.0974Z" fill="#1D1D1B"/>
<path d="M24.9486 19.612C24.9486 19.275 24.7101 19.1739 24.3692 19.3424C21.7448 20.724 19.5635 18.4662 17.6208 15.2987L19.4613 12.7714C19.5976 12.6029 19.768 12.4681 19.9384 12.367C20.2111 12.1985 20.4156 12.1985 20.6882 12.1985V12.0974H18.1661V12.1985C18.3365 12.1985 18.5069 12.1985 18.6432 12.367C18.7455 12.5018 18.8137 12.6366 18.6773 12.8051L17.314 14.8606L15.8825 12.8051C15.7803 12.6366 15.8144 12.5355 15.9166 12.367C16.0189 12.1985 16.2233 12.1985 16.3938 12.1985V12.0974H13.7353V12.1985H13.8716C14.2806 12.1985 14.7237 12.4344 14.9623 12.7714L16.8709 15.5009L14.7578 18.1967C14.3829 18.6348 14.0761 18.7359 13.5308 18.7359V18.8369H16.0189V18.7359C15.8484 18.7359 15.6439 18.7359 15.5417 18.5673C15.4394 18.3988 15.3713 18.2641 15.5076 18.0956L17.1777 15.8715C20.4156 20.5218 24.9827 20.8925 24.9486 19.612Z" fill="#1D1D1B"/>
<path d="M3.2379 18.5H1.60191V11.7942C1.60191 11.6594 1.63599 11.5583 1.70416 11.4235C1.90866 11.0865 2.14724 11.0865 2.48807 11.0865V10.9854H0V11.0865H0.136333C0.545331 11.0865 0.852079 11.3898 0.852079 11.7942V18.0282C0.852079 18.4326 0.511248 18.7359 0.136333 18.7359H0V18.8369H4.70347L5.35107 17.0173H5.2488C4.87388 17.9945 4.32855 18.5 3.2379 18.5Z" fill="#1D1D1B"/>
<path d="M11.3155 12.2322H11.4859C11.7927 12.2322 12.0313 12.4344 12.0313 12.7039V16.4781C12.0313 17.8597 11.1451 18.7021 9.74766 18.7021C8.28209 18.7021 7.60043 17.7249 7.60043 16.3433V12.7039C7.60043 12.5692 7.66861 12.4681 7.77085 12.367C7.94126 12.1985 8.11167 12.2322 8.31618 12.2322V12.1311H6.16895V12.2322C6.37345 12.2322 6.54386 12.2322 6.71428 12.367C6.81651 12.4681 6.88469 12.5692 6.88469 12.7039V16.4781C6.88469 18.163 8.11167 19.0054 9.71357 19.0054C11.3155 19.0054 12.5425 18.163 12.5425 16.4781V12.7039C12.5425 12.6029 12.5766 12.5355 12.6107 12.4681C12.7811 12.2322 12.9856 12.2322 13.2582 12.2322V12.1311H11.3155V12.2322Z" fill="#1D1D1B"/>
</g>
<defs>
<clipPath id="clip0_196_23">
<rect width="50" height="26.4" fill="white"/>
</clipPath>
</defs>
</svg>
